<svg id="visual" viewBox="0 0 900 600" width="900" height="600" xmlns="http://www.w3.org/2000/svg" xmlns:xlink="http://www.w3.org/1999/xlink" version="1.1"><path d="M0 517L18.8 521.8C37.7 526.7 75.3 536.3 112.8 543.7C150.3 551 187.7 556 225.2 557C262.7 558 300.3 555 337.8 553.3C375.3 551.7 412.7 551.3 450.2 546C487.7 540.7 525.3 530.3 562.8 527.3C600.3 524.3 637.7 528.7 675.2 531.2C712.7 533.7 750.3 534.3 787.8 539C825.3 543.7 862.7 552.3 881.3 556.7L900 561L900 601L881.3 601C862.7 601 825.3 601 787.8 601C750.3 601 712.7 601 675.2 601C637.7 601 600.3 601 562.8 601C525.3 601 487.7 601 450.2 601C412.7 601 375.3 601 337.8 601C300.3 601 262.7 601 225.2 601C187.7 601 150.3 601 112.8 601C75.3 601 37.7 601 18.8 601L0 601Z" fill="#ffffff" stroke-linecap="round" stroke-linejoin="miter"></path></svg>